<?xml version="1.0" encoding="utf8" standalone="no"?>
<svg enable-background="new 0 0 595.28 841.89" height="443.6626" viewBox="0 0 559.13248 443.66259" width="559.13251" xml:space="preserve" xmlns="http://www.w3.org/2000/svg"><defs></defs>
<g transform="translate(-18.44149,-69.06741)">
	<path d="m230.971,512.73 4.487-104.316-31.409,2.242-3.923,73.472-62.255,27.483z"></path>
	<path d="m282.009,407.852c0,1.684 1.68,103.195 1.68,103.195s80.765,2.247 80.765.564-54.405-31.408-54.405-31.408l.563-75.155-28.603,2.804z"></path>
	<path d="m346.507,237.914-178.91,14.578-1.124,171.064 184.52,1.683z" fill="#0b72b5"></path>
	<path d="m193.395,277.173c0,0 28.043,71.229 28.043,68.985 0-2.245 34.77-62.815 34.77-62.815l-62.813-6.17z" fill="#009ee0"></path>
	<path d="m263.501,283.904 22.995,62.813 43.745-80.763z" fill="#009ee0"></path>
	<path d="m376.232,183.514c0,63.182-55.993,114.411-125.074,114.411-69.069,0-125.065-51.229-125.065-114.411 0-63.19 55.997-114.418 125.065-114.418 69.081,0 125.074,51.227 125.074,114.418z" fill="#f6af6f"></path>
	<path d="m186.666,290.634-107.683-85.811-19.633,26.921 117.221,89.177z" fill="#05609a"></path>
	<path d="m340.336,266.516-4.486,33.651 120.584-52.159-12.339-31.406z" fill="#05609a"></path>
	
		<path d="m254.522,406.186c-.212-33.018-.48-88.746.084-90.995l2.728.683 2.769.466c-.371,3.126-.177,55.42.042,89.81l-5.623.036z" fill="#05609a"></path>
	
	<path d="m440.73,219.968c0,0 19.629-45.988 28.604-11.216 0,0 29.72-.56 10.651,16.824 0,0 27.479,26.357-28.044,20.749l-11.211-26.357z" fill="#f6af6f"></path>
	<path d="m547.847,121.817-107.121,19.632 35.896,140.211 100.952-21.311z" fill="#ffde91"></path>
	
		<path d="m533.181,149.265-71.787,12.338l-.951-5.539 71.789-12.336z"></path>
	
	
		<path d="m531.574,163.833-61.693,12.341l-1.103-5.511 61.694-12.341z"></path>
	
	
		<path d="m538.939,176.717-63.937,14.584l-1.253-5.482 63.94-14.584z"></path>
	
	
		<path d="m478.561,206.393-1.711-5.354c1.719-.574 49.205-10.091 63.718-12.993l1.104,5.512c-24.279,4.855-61.118,12.279-63.111,12.835z"></path>
	
	
		<path d="m546.269,209.237-55.524,13.461l-1.322-5.463 55.523-13.46z"></path>
	
	
		<path d="m550.715,225.511-56.645,12.902l-1.245-5.481 56.644-12.903z"></path>
	
	
		<path d="m556.829,244.594-65.058,13.46l-1.137-5.506 65.057-13.462z"></path>
	
	<path d="m146.279,186.598c0,10.992-9.667,19.909-21.591,19.909s-21.591-8.917-21.591-19.909c0-10.996 9.668-19.911 21.591-19.911s21.591,8.915 21.591,19.911z" fill="#f6af6f"></path>
	<path d="m393.616,187.156c0,10.375-9.165,18.789-20.47,18.789s-20.475-8.414-20.475-18.789c0-10.373 9.169-18.787 20.475-18.787s20.47,8.415 20.47,18.787z" fill="#f6af6f"></path>
	<path d="m218.06701,185.476a17.105,15.982 0 1,0 -34.21,0 17.105,15.982 0 1,0 34.21,0"></path>
	<path d="m307.807,187.439c0,8.982-7.156,16.264-15.985,16.264s-15.985-7.282-15.985-16.264 7.153-16.266 15.985-16.266 15.985,7.282 15.985,16.266z"></path>
	<path d="m224.24,202.021c0,0 14.022,31.406 35.333,1.12" fill="#de9e65"></path>
	<path d="m162.543,216.038c0,0 102.077,45.987 166.016-5.046 0,0-74.034,122.829-166.016,5.046z" fill="#fff"></path>
	<path d="m164.788,158.273 3.927,8.973c0,0 39.259-20.749 57.765-10.653 0,0-12.897-17.385-61.692,1.68z"></path>
	<path d="m267.424,157.151c0,0 52.72-4.482 61.692,6.172l5.61-14.585c.001,0-52.159-6.171-67.302,8.413z"></path>
	<path d="m174.321,168.928 .565,5.609 50.474,1.121z"></path>
	<path d="m262.375,176.784 56.088-7.856-1.123,8.975z"></path>
	<path d="m59.35,231.744c0,0-53.282-5.044-35.334-21.31 0,0-15.706-22.433 5.608-20.191 0,0 7.291-21.874 21.873-8.975l27.485,23.556-19.632,26.92z" fill="#f6af6f"></path>
	<path d="m209.657,188.279c0,3.252-3.011,5.889-6.731,5.889-3.713,0-6.729-2.637-6.729-5.889s3.016-5.889 6.729-5.889c3.72,0 6.731,2.634 6.731,5.889z" fill="#fff"></path>
	<path d="m299.95401,189.681a6.729,6.167 0 1,0 -13.458,0 6.729,6.167 0 1,0 13.458,0" fill="#fff"></path>
	<path d="m131.141,149.3c-.72,1.889 66.177-40.381 66.177-40.381l-12.336,20.191 29.722-19.633-13.461,21.315 51.599-24.681-13.461,16.826 36.458-15.143-15.706,18.508 39.821-15.702-24.68,21.874 35.334-13.461-11.778,14.021 31.411-8.972 38.141,17.946c0,0-16.829-68.425-121.709-72.912-.001,0-83.563-3.925-115.532,80.204z" fill="#915e36"></path>
</g>
</svg>
