<?xml version="1.0" encoding="utf8" standalone="no"?>
<svg viewBox="0 0 200 200" xmlns="http://www.w3.org/2000/svg">
<g transform="translate(725.42858,-425.71429)">
<g transform="scale(-1,1)">
<path d="m558.00896,510.08264c30.16989-3.53553 38.41947-3.53553 40.30509,12.72792" fill="none" stroke="#000" stroke-linecap="round" stroke-linejoin="round" stroke-width="2.5"/>
<path d="m367.85713,604.50507a61.42857,13.57143 0 1,1 -122.85714,0 61.42857,13.57143 0 1,1 122.85714,0z" fill-opacity=".39216" transform="matrix(1.07674,0,0,.82956,300.41032,107.17185)"/>
<path d="m704.38671,537.23137c0,46.15309-36.68404,75.12354-74.97692,75.12354s-68.67043-19.93916-68.67043-66.09225 31.07829-83.61067 69.37115-83.61067 74.2762,28.42629 74.2762,74.57938z" fill="#fff" stroke="#000" stroke-linecap="round" stroke-linejoin="round" stroke-width="2.5"/>
<path d="m589.30851,574.30474c3.27467,5.45599 15.86851,9.02837 31.99758,8.69234 16.1054-.33554 32.12584-5.85508 34.74323-11.57695" fill="none" stroke="#000" stroke-linecap="round" stroke-linejoin="round" stroke-width="2.5"/>
<path d="m849.94235,633.51617a26.5165,26.5165 0 1,1 -53.03301,0 26.5165,26.5165 0 1,1 53.03301,0z" fill="none" stroke="#000" stroke-width="2.32256" transform="matrix(1.0764,0,0,1.0764,-245.77085,-161.85844)"/>
<path d="m358.57144,757.00507a5.35714,4.64286 0 1,1 -10.71429,0 5.35714,4.64286 0 1,1 10.71429,0z" stroke="#000" stroke-linecap="round" stroke-linejoin="round" stroke-width="4.12148" transform="matrix(.57819,0,0,.63636,431.79612,38.27345)"/>
<path d="m849.94235,633.51617a26.5165,26.5165 0 1,1 -53.03301,0 26.5165,26.5165 0 1,1 53.03301,0z" fill="none" stroke="#000" stroke-width="2.5" transform="translate(-241.90572,-113.81229)"/>
<path d="m358.57144,757.00507a5.35714,4.64286 0 1,1 -10.71429,0 5.35714,4.64286 0 1,1 10.71429,0z" stroke="#000" stroke-linecap="round" stroke-linejoin="round" stroke-width="4.12148" transform="matrix(.57819,0,0,.63636,389.29592,37.99445)"/>
<path d="m592.82823,452.19597-6.9375,30.17483c7.14933-5.29132 22.72014-1.88278 25.65627,2.37832 13.13682-13.32839 42.44784-17.06126 63.1105-6.866l-12.74645-31.12447-69.08282,5.43732z" fill-rule="evenodd" stroke="#000" stroke-width="2.5"/>
<path d="m591.27307,432.77334 126.10084,1.7814-27.81047,31.46969-155.50877-3.87264 57.2184-29.37845z" fill-rule="evenodd" stroke="#000" stroke-linecap="round" stroke-linejoin="round" stroke-width="2.5"/>
<path d="m632.23853,445.08512c-2.06044-10.26473 53.21204-8.72593 66.96229,1.12894 13.29222,9.52662 2.65897,22.14198 7.51229,32.80086" fill="none" stroke="#fff" stroke-linecap="round" stroke-linejoin="round" stroke-width="2.5"/>
<path d="m705.14304,451.36981-6.79299,28.81983c-1.19605,8.48472 15.82391,6.8882 14.93496-1.01904l-8.14197-27.80079z" fill-rule="evenodd" stroke="#000" stroke-linecap="round" stroke-linejoin="round" stroke-width="2.5"/>
<path d="m667.43358,506.62241c30.16989-3.53553 38.41947-3.53553 40.30509,12.72792" fill="none" stroke="#000" stroke-linecap="round" stroke-linejoin="round" stroke-width="2.5"/>
<path d="m607.85861,512.75067 4.59767.47141" fill="none" stroke="#000" stroke-width="2.5"/>
</g>
</g>
</svg>
